<svg xmlns="http://www.w3.org/2000/svg" viewBox="0 0 500 500"><g id="freepik--Floor--inject-163"><path id="freepik--floor--inject-163" d="M101.77,283.75C19.9,331,19.9,407.64,101.77,454.91s214.6,47.27,296.47,0,81.86-123.9,0-171.16S183.63,236.48,101.77,283.75Z" style="fill:#fafafa"></path></g><g id="freepik--Window--inject-163"><g id="freepik--window--inject-163"><path d="M38.69,120.14C38.69,93.39,56.31,61.54,78,49c11.5-6.64,21.85-6.54,29-1,9,3.71,14.68,14,14.68,29.24V203.14l-78.7,45.43L38.69,246Z" style="fill:#e6e6e6"></path><path d="M43.06,248.57V122.66c0-26.74,17.62-58.6,39.35-71.14s39.35-1,39.35,25.71V203.14Z" style="fill:#f5f5f5"></path><path d="M47.36,122.66V241.11l70.09-40.47V77.24c0-13.37-4.7-22.6-12.61-25.5a16.25,16.25,0,0,0-5.74-1c-4.48,0-9.36,1.51-14.54,4.5C64.05,67.09,47.36,97.33,47.36,122.66Z" style="fill:#e0e0e0"></path><polygon points="117.45 200.64 113.01 198.08 47.37 235.99 47.37 241.11 117.45 200.64" style="fill:#ebebeb"></polygon><path d="M47.36,122.66V236L113,198.08V74.66C113,64,110,56,104.84,51.74a16.25,16.25,0,0,0-5.74-1c-4.48,0-9.36,1.51-14.54,4.5C64.05,67.09,47.36,97.33,47.36,122.66Z" style="fill:#fff"></path><polygon points="80.26 222.12 84.56 219.63 84.56 53.69 80.26 53.69 80.26 222.12" style="fill:#f5f5f5"></polygon><path d="M76,61.47V219.64l4.31,2.48V58C78.79,59.09,77.36,60.23,76,61.47Z" style="fill:#e0e0e0"></path><polygon points="117.45 160.54 84.56 179.53 84.56 184.58 117.45 165.59 117.45 160.54" style="fill:#f5f5f5"></polygon><polygon points="113.01 157.98 117.45 160.54 84.56 179.53 84.56 174.48 113.01 157.98" style="fill:#ebebeb"></polygon><polygon points="80.26 182.01 47.37 201 47.37 206.05 80.26 187.06 80.26 182.01" style="fill:#f5f5f5"></polygon><polygon points="75.81 179.45 80.26 182.01 47.37 201 47.37 195.95 75.81 179.45" style="fill:#ebebeb"></polygon><polygon points="117.45 86.82 84.56 105.81 84.56 110.86 117.45 91.87 117.45 86.82" style="fill:#f5f5f5"></polygon><polygon points="113.01 84.26 117.45 86.82 84.56 105.81 84.56 100.76 113.01 84.26" style="fill:#ebebeb"></polygon><polygon points="80.26 108.29 47.37 127.28 47.37 132.33 80.26 113.34 80.26 108.29" style="fill:#f5f5f5"></polygon><polygon points="75.81 105.73 80.26 108.29 47.37 127.28 47.37 122.23 75.81 105.73" style="fill:#ebebeb"></polygon></g></g><g id="freepik--Shelves--inject-163"><g id="freepik--shelves--inject-163"><g id="freepik--Shelf--inject-163"><polygon points="369.2 153.93 397.37 137.67 471.54 180.44 471.54 183.54 443.37 199.8 369.2 157.02 369.2 153.93" style="fill:#ebebeb"></polygon><polygon points="443.37 196.71 369.2 153.93 397.37 137.67 471.54 180.44 443.37 196.71" style="fill:#fafafa"></polygon><polygon points="443.37 196.71 443.37 199.8 471.54 183.54 471.54 180.44 443.37 196.71" style="fill:#e6e6e6"></polygon><polygon points="388.89 110.86 372.37 120.41 372.37 151.84 388.89 142.3 388.89 110.86" style="fill:#ebebeb"></polygon><path d="M372.9,120.93l16-9.18a6.76,6.76,0,0,0,3.66,2l-15.86,9.14A16.1,16.1,0,0,1,372.9,120.93Z" style="fill:#fff"></path><path d="M378.23,122.83a3.39,3.39,0,0,1-3.07,0l-2.7-1.54a.94.94,0,0,1,0-1.77l15.77-9,.66.38-15.5,9a.56.56,0,0,0,0,1.06l2.51,1.42a2.05,2.05,0,0,0,1.84,0l15.5-8.94.75.44Z" style="fill:#fafafa"></path><path d="M394,113.79v31.43l-15.76,9.05a3.39,3.39,0,0,1-3.07,0l-2.7-1.55a1.07,1.07,0,0,1-.63-.88V120.4a1.08,1.08,0,0,0,.63.89l2.7,1.54a3.39,3.39,0,0,0,3.07,0Z" style="fill:#e0e0e0"></path><path d="M376.69,123.2a3.07,3.07,0,0,1-1.53-.37l-2.7-1.54a1.08,1.08,0,0,1-.63-.89v31.44a1.07,1.07,0,0,0,.63.88l2.7,1.55a3.17,3.17,0,0,0,1.53.36Z" style="fill:#f0f0f0"></path><polygon points="395.82 115.62 379.3 125.17 384.43 157.55 400.96 148.01 395.82 115.62" style="fill:#ebebeb"></polygon><path d="M380,125.62l16-9.18a8.82,8.82,0,0,0,4.26,1.65l-15.86,9.14A21.14,21.14,0,0,1,380,125.62Z" style="fill:#fff"></path><path d="M386,127.1a4.26,4.26,0,0,1-3.33.15L379.53,126c-1-.41-1.11-1.13-.26-1.62l15.77-9,.78.32-15.5,8.95c-.51.3-.44.73.16,1l2.92,1.18a2.61,2.61,0,0,0,2-.09l15.49-8.94.89.36Z" style="fill:#fafafa"></path><path d="M401.78,118.05l5.13,32.39-15.77,9.05a4.3,4.3,0,0,1-3.33.15l-3.15-1.28c-.49-.21-.77-.49-.81-.78l-5.14-32.39c.05.29.33.58.82.78l3.15,1.29a4.35,4.35,0,0,0,3.33-.15Z" style="fill:#e0e0e0"></path><path d="M384.4,127.51a4.15,4.15,0,0,1-1.72-.25L379.53,126c-.49-.2-.77-.49-.82-.78l5.14,32.39c0,.29.32.57.81.78l3.15,1.28a4.15,4.15,0,0,0,1.72.26Z" style="fill:#f0f0f0"></path><g id="freepik--Pot--inject-163"><path id="freepik--Shadow--inject-163" d="M401.85,157c-3.88,2.25-3.88,5.89,0,8.13a15.53,15.53,0,0,0,14.08,0c3.89-2.24,3.89-5.88,0-8.13A15.59,15.59,0,0,0,401.85,157Z" style="opacity:0.05"></path><path d="M415.22,162.69c3.39-3.46,5.38-12.09,2.08-14.83H400.49c-3.3,2.74-1.31,11.37,2.07,14.82l.09.1.12.11a4,4,0,0,0,.31.27.27.27,0,0,0,.08.07l.25.19c.15.1.29.2.44.28a11.14,11.14,0,0,0,10.09,0h0c.15-.08.29-.18.44-.28l.24-.18.1-.08.29-.26.14-.13Z" style="fill:#f5f5f5"></path><path d="M402,146.55c-3.83,2.21-3.83,5.8,0,8a15.38,15.38,0,0,0,13.89,0c3.83-2.22,3.83-5.81,0-8A15.38,15.38,0,0,0,402,146.55Z" style="fill:#fff"></path><path d="M404.67,148.12c-2.33,1.35-2.33,3.53,0,4.88a9.38,9.38,0,0,0,8.45,0c2.33-1.35,2.33-3.53,0-4.88A9.32,9.32,0,0,0,404.67,148.12Z" style="fill:#ebebeb"></path><path d="M413.12,150.43a9.38,9.38,0,0,0-8.45,0,4,4,0,0,0-1.4,1.28,3.93,3.93,0,0,0,1.4,1.29,9.38,9.38,0,0,0,8.45,0,3.81,3.81,0,0,0,1.39-1.29A3.88,3.88,0,0,0,413.12,150.43Z" style="fill:#e0e0e0"></path><path d="M405.18,151.71a19,19,0,0,1-3.05-4.06c-1.41-2.49-1.67-5.83-.94-6.25s3.7,2.92,3.7,2.92a18,18,0,0,1-.32-4.25c.13-2.23.67-4.25,1.31-4.65s2.06,2.39,2.67,4.42,1,3.71,1,3.71a31.49,31.49,0,0,1,1.1-4.68c.74-2.11,1.41-2.59,1.93-2.38s.86,1.2,1,4a28.76,28.76,0,0,1-.13,4s1.05-1.16,2.21-2.27,1.82-1.4,2.19-1.16.46,2.14-1.51,5.71a20,20,0,0,1-3.73,4.91S409.86,153.48,405.18,151.71Z" style="fill:#ebebeb"></path></g><polygon points="435.11 134.71 418.59 144.25 418.59 175.69 435.11 166.15 435.11 134.71" style="fill:#e0e0e0"></polygon><path d="M419.12,144.78l16-9.18a6.83,6.83,0,0,0,3.66,2l-15.86,9.14A16.1,16.1,0,0,1,419.12,144.78Z" style="fill:#fff"></path><path d="M424.45,146.68a3.39,3.39,0,0,1-3.07,0l-2.7-1.54a.93.93,0,0,1,0-1.77l15.76-9,.67.38-15.5,8.95a.56.56,0,0,0,0,1.06l2.5,1.42a2.08,2.08,0,0,0,1.85,0l15.49-8.94.76.44Z" style="fill:#fafafa"></path><path d="M440.21,137.63v31.44l-15.76,9.05a3.45,3.45,0,0,1-3.07,0l-2.7-1.55a1.07,1.07,0,0,1-.63-.88V144.25a1.07,1.07,0,0,0,.63.88l2.7,1.55a3.39,3.39,0,0,0,3.07,0Z" style="fill:#e0e0e0"></path><path d="M422.91,147.05a3.07,3.07,0,0,1-1.53-.37l-2.7-1.55a1.07,1.07,0,0,1-.63-.88v31.44a1.07,1.07,0,0,0,.63.88l2.7,1.55a3.17,3.17,0,0,0,1.53.36Z" style="fill:#f0f0f0"></path><polygon points="441.87 138.59 425.35 148.13 425.35 179.57 441.87 170.03 441.87 138.59" style="fill:#ebebeb"></polygon><path d="M425.88,148.66l16-9.18a6.79,6.79,0,0,0,3.66,2l-15.86,9.14A16.1,16.1,0,0,1,425.88,148.66Z" style="fill:#fff"></path><path d="M431.21,150.56a3.41,3.41,0,0,1-3.08,0L425.44,149a.93.93,0,0,1,0-1.77l15.76-9,.67.38-15.5,8.95a.56.56,0,0,0,0,1.06l2.5,1.42a2.08,2.08,0,0,0,1.85,0l15.49-8.94.76.44Z" style="fill:#fafafa"></path><path d="M447,141.51V173L431.21,182a3.47,3.47,0,0,1-3.08,0l-2.69-1.55a1.08,1.08,0,0,1-.64-.88V148.13a1.08,1.08,0,0,0,.64.88l2.69,1.55a3.41,3.41,0,0,0,3.08,0Z" style="fill:#e0e0e0"></path><path d="M429.67,150.93a3.11,3.11,0,0,1-1.54-.37L425.44,149a1.08,1.08,0,0,1-.64-.88v31.44a1.08,1.08,0,0,0,.64.88l2.69,1.55a3.21,3.21,0,0,0,1.54.36Z" style="fill:#f0f0f0"></path><polygon points="448.54 145.26 432.02 154.8 437.15 187.19 453.68 177.65 448.54 145.26" style="fill:#ebebeb"></polygon><path d="M432.67,155.25l16-9.18a8.82,8.82,0,0,0,4.26,1.65l-15.86,9.14A21.14,21.14,0,0,1,432.67,155.25Z" style="fill:#fff"></path><path d="M438.73,156.74a4.3,4.3,0,0,1-3.33.15l-3.15-1.29c-1-.4-1.11-1.12-.26-1.61l15.77-9.05.78.32-15.5,9c-.51.29-.44.72.16,1l2.92,1.18a2.61,2.61,0,0,0,2-.09l15.49-8.94.89.36Z" style="fill:#fafafa"></path><path d="M454.5,147.69l5.13,32.39-15.77,9a4.3,4.3,0,0,1-3.33.14L437.38,188c-.49-.2-.77-.48-.81-.78l-5.14-32.38c.05.29.33.57.82.77l3.15,1.29a4.3,4.3,0,0,0,3.33-.15Z" style="fill:#e0e0e0"></path><path d="M437.12,157.15a4.15,4.15,0,0,1-1.72-.26l-3.15-1.29c-.49-.2-.77-.48-.82-.77l5.14,32.38c0,.3.32.58.81.78l3.15,1.28a4,4,0,0,0,1.72.26Z" style="fill:#f0f0f0"></path></g><g id="freepik--shelf--inject-163"><polygon points="369.2 92.92 397.37 76.66 471.54 119.43 471.54 122.52 443.37 138.79 369.2 96.01 369.2 92.92" style="fill:#ebebeb"></polygon><polygon points="443.37 135.69 369.2 92.92 397.37 76.66 471.54 119.43 443.37 135.69" style="fill:#fafafa"></polygon><polygon points="443.37 135.69 443.37 138.79 471.54 122.52 471.54 119.43 443.37 135.69" style="fill:#e6e6e6"></polygon><polygon points="393.04 46.86 374.77 57.41 374.77 92.16 393.04 81.61 393.04 46.86" style="fill:#ebebeb"></polygon><path d="M375.36,58,393,47.84a7.37,7.37,0,0,0,4,2.21L379.55,60.16A18,18,0,0,1,375.36,58Z" style="fill:#fff"></path><path d="M381.25,60.1a3.81,3.81,0,0,1-3.39,0l-3-1.71a1,1,0,0,1,0-2l17.42-10,.74.42-17.13,9.9c-.57.32-.57.84,0,1.17l2.76,1.56a2.23,2.23,0,0,0,2,0l17.13-9.87.83.48Z" style="fill:#fafafa"></path><path d="M398.67,50.1V84.84l-17.42,10a3.75,3.75,0,0,1-3.39,0l-3-1.71a1.18,1.18,0,0,1-.7-1V57.41a1.18,1.18,0,0,0,.7,1l3,1.71a3.81,3.81,0,0,0,3.39,0Z" style="fill:#e0e0e0"></path><path d="M379.55,60.5a3.43,3.43,0,0,1-1.69-.4l-3-1.71a1.18,1.18,0,0,1-.7-1V92.16a1.18,1.18,0,0,0,.7,1l3,1.71a3.43,3.43,0,0,0,1.69.4Z" style="fill:#f0f0f0"></path><polygon points="400.13 52.9 381.87 63.45 387.54 99.25 405.81 88.7 400.13 52.9" style="fill:#ebebeb"></polygon><path d="M382.59,64,400.28,53.8a9.67,9.67,0,0,0,4.7,1.82L387.45,65.73A23.52,23.52,0,0,1,382.59,64Z" style="fill:#fff"></path><path d="M389.28,65.59a4.73,4.73,0,0,1-3.68.16l-3.48-1.42c-1.09-.44-1.22-1.24-.28-1.78l17.43-10,.86.35L383,62.79c-.56.32-.49.8.17,1.07l3.23,1.3a2.82,2.82,0,0,0,2.21-.1l17.13-9.87,1,.4Z" style="fill:#fafafa"></path><path d="M406.71,55.59l5.67,35.79-17.42,10a4.79,4.79,0,0,1-3.69.16l-3.47-1.42c-.55-.22-.86-.53-.91-.86l-5.67-35.8c0,.33.36.64.9.86l3.48,1.43a4.77,4.77,0,0,0,3.68-.17Z" style="fill:#e0e0e0"></path><path d="M387.5,66a4.69,4.69,0,0,1-1.9-.28l-3.48-1.43c-.54-.22-.85-.53-.9-.86l5.67,35.8c.05.33.36.64.91.86l3.47,1.42a4.71,4.71,0,0,0,1.9.29Z" style="fill:#f0f0f0"></path><g id="freepik--Picture--inject-163"><g id="freepik--Frame--inject-163"><polygon points="430.48 117.92 429.19 118.55 405.23 104.71 406.52 104.09 430.48 117.92" style="fill:#fafafa"></polygon><polygon points="406.52 104.09 429.31 117.25 432.63 83.15 409.83 70 406.52 104.09" style="fill:#fff"></polygon><path d="M402.79,105.85l28.37,16.38L435.07,82,406.7,65.63Zm5.88-36.54,24,13.84-3.44,35.4-24-13.84Z" style="fill:#f0f0f0"></path><polygon points="405.23 104.71 406.52 104.09 409.83 70 408.67 69.31 405.23 104.71" style="fill:#e0e0e0"></polygon><polygon points="406.7 65.63 408.01 65.03 436.38 81.41 435.07 82.01 406.7 65.63" style="fill:#fafafa"></polygon><polygon points="436.38 81.41 435.07 82.01 431.16 122.23 432.47 121.62 436.38 81.41" style="fill:#e0e0e0"></polygon></g><g id="freepik--Land--inject-163"><polygon points="407.52 103.44 428.54 115.57 429.1 109.83 425.19 92.95 421.46 98.71 422.23 103.56 416.02 85.66 408.08 97.7 407.52 103.44" style="fill:#f0f0f0"></polygon><path d="M425.51,85.85a3,3,0,0,1,1.39,2.6c-.09.93-.86,1.29-1.72.8a3,3,0,0,1-1.39-2.6C423.88,85.71,424.65,85.35,425.51,85.85Z" style="fill:#f0f0f0"></path></g></g><g id="freepik--pot--inject-163"><path id="freepik--shadow--inject-163" d="M442.29,115.56c-3.89,2.24-3.89,5.88,0,8.13a15.59,15.59,0,0,0,14.08,0c3.89-2.25,3.88-5.89,0-8.13A15.53,15.53,0,0,0,442.29,115.56Z" style="opacity:0.05"></path><path d="M455.66,121.22c3.38-3.46,5.37-12.08,2.07-14.82h-16.8c-3.31,2.74-1.32,11.36,2.06,14.82l.1.09.11.11.31.28.08.06a2.48,2.48,0,0,0,.26.19,3.49,3.49,0,0,0,.43.28,11.14,11.14,0,0,0,10.09,0h0a4.08,4.08,0,0,0,.44-.28l.24-.18.1-.08.29-.26.14-.13Z" style="fill:#f5f5f5"></path><path d="M442.38,105.08c-3.83,2.22-3.83,5.8,0,8a15.38,15.38,0,0,0,13.89,0c3.83-2.21,3.83-5.8,0-8A15.38,15.38,0,0,0,442.38,105.08Z" style="fill:#fff"></path><path d="M445.1,106.65c-2.33,1.35-2.33,3.53,0,4.88a9.32,9.32,0,0,0,8.45,0c2.33-1.35,2.33-3.53,0-4.88A9.32,9.32,0,0,0,445.1,106.65Z" style="fill:#ebebeb"></path><path d="M453.55,109a9.32,9.32,0,0,0-8.45,0,3.79,3.79,0,0,0-1.39,1.28,3.87,3.87,0,0,0,1.39,1.28,9.32,9.32,0,0,0,8.45,0,3.91,3.91,0,0,0,1.4-1.28A3.82,3.82,0,0,0,453.55,109Z" style="fill:#e0e0e0"></path><path d="M445.62,110.25a19.17,19.17,0,0,1-3.06-4.06c-1.41-2.5-1.67-5.84-.94-6.25s3.7,2.92,3.7,2.92A17.85,17.85,0,0,1,445,98.6c.12-2.22.66-4.24,1.3-4.65s2.06,2.4,2.67,4.43,1,3.7,1,3.7a30.88,30.88,0,0,1,1.09-4.68c.74-2.11,1.41-2.58,1.93-2.37s.87,1.19,1,4a27,27,0,0,1-.13,4s1.05-1.15,2.21-2.27,1.83-1.39,2.19-1.16.47,2.14-1.51,5.72a19.94,19.94,0,0,1-3.73,4.91S450.29,112,445.62,110.25Z" style="fill:#ebebeb"></path></g></g></g></g><g id="freepik--Shadows--inject-163"><path id="freepik--shadow--inject-163" d="M49,354.45c-14,8.07-14,21.15,0,29.22s36.63,8.06,50.6,0,14-21.15,0-29.22S63,346.38,49,354.45Z" style="fill:#e0e0e0;opacity:0.99"></path><ellipse id="freepik--shadow--inject-163" cx="307.87" cy="426.26" rx="70.55" ry="40.73" style="fill:#e0e0e0"></ellipse><ellipse id="freepik--shadow--inject-163" cx="188.83" cy="426.26" rx="72.74" ry="42" style="fill:#e0e0e0"></ellipse><path id="freepik--shadow--inject-163" d="M426.53,379.69l44.24-25.49a1.14,1.14,0,0,0,0-2.16L375.65,297a4.1,4.1,0,0,0-3.72,0L327.7,322.44a1.14,1.14,0,0,0,0,2.16l95.12,55.09A4.1,4.1,0,0,0,426.53,379.69Z" style="fill:#e0e0e0;opacity:0.99"></path></g><g id="freepik--Plant--inject-163"><g id="freepik--plant--inject-163"><g id="freepik--pot--inject-163"><path d="M54,374c-10.63-11-16.87-38.68-6.5-47.38H100.2c10.36,8.7,4.12,36.39-6.5,47.36-.09.11-.19.21-.29.31l-.36.36c-.3.29-.62.58-1,.86l-.26.2c-.26.21-.52.42-.8.62a15.82,15.82,0,0,1-1.37.88c-8.75,5.11-22.92,5.11-31.66,0h0a14.12,14.12,0,0,1-1.39-.89c-.26-.19-.5-.38-.74-.57l-.32-.25c-.33-.27-.63-.55-.92-.83l-.43-.42Z" style="fill:#ebebeb"></path><path d="M95.62,323.09c12,7,12,18.42,0,25.44s-31.55,7-43.58,0-12-18.42,0-25.44S83.58,316.06,95.62,323.09Z" style="fill:#fafafa"></path><path d="M89.83,326.47c8.84,5.16,8.84,13.52,0,18.68s-23.17,5.16-32,0-8.84-13.52,0-18.68S81,321.31,89.83,326.47Z" style="fill:#ebebeb"></path><path d="M57.83,335.34c8.83-5.16,23.16-5.16,32,0a14.72,14.72,0,0,1,5.29,4.9,14.74,14.74,0,0,1-5.29,4.91c-8.84,5.16-23.17,5.16-32,0a14.69,14.69,0,0,1-5.3-4.91A14.68,14.68,0,0,1,57.83,335.34Z" style="fill:#fff"></path></g><path d="M66.61,269.83c-3.56,4.5-14.26,6.48-19.59-4.54C42,255,36.73,245.2,35.15,241.39s2.18-5.4,2.18-5.4-.14-5.87,10.08-2.67,17.68,8.7,22.75,18.11S73.15,268,66.61,269.83Z" style="fill:#f0f0f0"></path><path d="M72.05,284.52a52.84,52.84,0,0,0-1.32-5.86,82.48,82.48,0,0,0-4.16-11.18,84.4,84.4,0,0,0-13.11-20.34,73.33,73.33,0,0,0-9.82-9.56c-.1-.08-.17.15-.09.22a90.26,90.26,0,0,1,15.64,18.46,91.56,91.56,0,0,1,9.87,21.55q1,3.18,1.85,6.4c.57,2.18,1,4.4,1.51,6.59.06.22.41.32.4,0A41.7,41.7,0,0,0,72.05,284.52Z" style="fill:#e0e0e0"></path><path d="M72.05,284.52a52.84,52.84,0,0,0-1.32-5.86,82.48,82.48,0,0,0-4.16-11.18,84.4,84.4,0,0,0-13.11-20.34,73.33,73.33,0,0,0-9.82-9.56c-.1-.08-.17.15-.09.22a90.26,90.26,0,0,1,15.64,18.46,91.56,91.56,0,0,1,9.87,21.55q1,3.18,1.85,6.4c.57,2.18,1,4.4,1.51,6.59.06.22.41.32.4,0A41.7,41.7,0,0,0,72.05,284.52Z" style="opacity:0.1"></path><path d="M78.2,261.93C68.92,264.8,62,257.56,64.42,246.2s14.32-24,18.82-20.58c2.82-2.82,9-1.81,11.94,7.42S95.44,266,78.2,261.93Z" style="fill:#e0e0e0"></path><path d="M83.65,232.53a124.71,124.71,0,0,0-6.17,20.41,198.06,198.06,0,0,0-3.58,21.37A332.83,332.83,0,0,0,72,316.19c0,3.87.08,7.73.15,11.6s0,8,.35,12c.13,1.52,2.29,1.11,2.32-.28.14-7-.24-13.94-.31-20.9s0-13.76.13-20.64a288.62,288.62,0,0,1,3.75-41.83c.66-3.85,1.4-7.7,2.3-11.5.94-4,2.1-7.95,3.15-11.92C83.92,232.52,83.74,232.31,83.65,232.53Z" style="fill:#e0e0e0"></path><path d="M83.65,232.53a124.71,124.71,0,0,0-6.17,20.41,198.06,198.06,0,0,0-3.58,21.37A332.83,332.83,0,0,0,72,316.19c0,3.87.08,7.73.15,11.6s0,8,.35,12c.13,1.52,2.29,1.11,2.32-.28.14-7-.24-13.94-.31-20.9s0-13.76.13-20.64a288.62,288.62,0,0,1,3.75-41.83c.66-3.85,1.4-7.7,2.3-11.5.94-4,2.1-7.95,3.15-11.92C83.92,232.52,83.74,232.31,83.65,232.53Z" style="opacity:0.1"></path><path d="M60.94,293c-2.68,5.51-11.74,7.61-19.93,1.38s-20-34.89-11.08-35.35c.69-4.46,26.69-1.43,35.06,17.1C71.08,289.62,60.94,293,60.94,293Z" style="fill:#e0e0e0"></path><path d="M71.82,305.11A43.86,43.86,0,0,0,69.17,300c-2-3.37-4.15-6.62-6.46-9.78a117.21,117.21,0,0,0-16.12-17.57,105.07,105.07,0,0,0-10.31-8.41c-.1-.07-.12.16-.06.21,2.93,2.46,5.88,4.88,8.64,7.54a117.06,117.06,0,0,1,8.12,8.7,146.21,146.21,0,0,1,13.45,18.52c1.13,1.85,2.16,3.76,3.31,5.6s2.54,3.73,3.65,5.69c.16.29.58.29.43-.1C73.13,308.66,72.57,306.85,71.82,305.11Z" style="fill:#e0e0e0"></path><path d="M71.82,305.11A43.86,43.86,0,0,0,69.17,300c-2-3.37-4.15-6.62-6.46-9.78a117.21,117.21,0,0,0-16.12-17.57,105.07,105.07,0,0,0-10.31-8.41c-.1-.07-.12.16-.06.21,2.93,2.46,5.88,4.88,8.64,7.54a117.06,117.06,0,0,1,8.12,8.7,146.21,146.21,0,0,1,13.45,18.52c1.13,1.85,2.16,3.76,3.31,5.6s2.54,3.73,3.65,5.69c.16.29.58.29.43-.1C73.13,308.66,72.57,306.85,71.82,305.11Z" style="opacity:0.1"></path><path d="M77.94,290.7c-5.3-1.21-5.57-7.58,1.06-15.4s23.34-11.23,24.13-7.94c3.71,0,3.71,11.63-4.51,22.32S78.44,297.88,77.94,290.7Z" style="fill:#e0e0e0"></path><path d="M88.33,279.33A41.82,41.82,0,0,0,73,299.14c-.17.46.61,1.12.8.63a48.79,48.79,0,0,1,14.58-20.34S88.4,279.28,88.33,279.33Z" style="fill:#e0e0e0"></path><path d="M88.33,279.33A41.82,41.82,0,0,0,73,299.14c-.17.46.61,1.12.8.63a48.79,48.79,0,0,1,14.58-20.34S88.4,279.28,88.33,279.33Z" style="opacity:0.1"></path><path d="M84,329.5c-7.35,3-4.2,11.73,3,18.37s17.43,8.4,22.36,8.05,6.2-1,6.2-1,.79-7.56,0-12.16a23.52,23.52,0,0,0-17.32-18.65C86.75,321,84,325.13,84,329.5Z" style="fill:#f0f0f0"></path><path d="M104.34,342.42c-3.4-3.8-7-7.58-11.25-10.41s-9.76-5.1-14.78-3.38c-1.94.66-5,2.6-4.6,5,0,.24.46.83.75.5a20,20,0,0,1,2.64-3.09,7.84,7.84,0,0,1,4-1.49,18.25,18.25,0,0,1,10.3,2.34c5,2.63,9,6.72,12.93,10.64C104.33,342.58,104.37,342.46,104.34,342.42Z" style="fill:#e0e0e0"></path><path d="M104.34,342.42c-3.4-3.8-7-7.58-11.25-10.41s-9.76-5.1-14.78-3.38c-1.94.66-5,2.6-4.6,5,0,.24.46.83.75.5a20,20,0,0,1,2.64-3.09,7.84,7.84,0,0,1,4-1.49,18.25,18.25,0,0,1,10.3,2.34c5,2.63,9,6.72,12.93,10.64C104.33,342.58,104.37,342.46,104.34,342.42Z" style="opacity:0.1"></path><path d="M56.07,300.78c.08-3.12-5.57-9.52-19.34-8.42-6.29.5-12,2.2-16.67,6.64a9.57,9.57,0,0,0-3,5.53,4.23,4.23,0,0,0,.33,2.44,4.43,4.43,0,0,0,1.19,1.36c3.3,2.65,7.59,1.95,11.46,2.94,6,1.53,18.67,7,26,3.36S60.44,303.06,56.07,300.78Z" style="fill:#f0f0f0"></path><path d="M68.26,309.36C60.4,298.63,45.05,297.73,33.05,300a48,48,0,0,0-11.43,3.67c-.05,0,0,.15,0,.13A63.31,63.31,0,0,1,41.18,300c6.57-.13,13.19.7,19.14,3.62a24.79,24.79,0,0,1,7.71,6C68.25,309.89,68.42,309.58,68.26,309.36Z" style="fill:#e0e0e0"></path><path d="M68.26,309.36C60.4,298.63,45.05,297.73,33.05,300a48,48,0,0,0-11.43,3.67c-.05,0,0,.15,0,.13A63.31,63.31,0,0,1,41.18,300c6.57-.13,13.19.7,19.14,3.62a24.79,24.79,0,0,1,7.71,6C68.25,309.89,68.42,309.58,68.26,309.36Z" style="opacity:0.1"></path><path d="M91.12,274.3c-.19,5.27,7.22,8.33,14.4,3.77s14.69-9,21.34-10.71,9.8-7.14,7.7-9.76-5.44-9.25-22.92-7.09-23.67,10-26.07,15.6S88.49,275.82,91.12,274.3Z" style="fill:#f0f0f0"></path><path d="M119.57,257.58a19.09,19.09,0,0,0-7.5.78,37.8,37.8,0,0,0-6.42,2.3,35.46,35.46,0,0,0-10.93,7.92,30.52,30.52,0,0,0-2.46,3,12.69,12.69,0,0,0-1.87,3.06c-.12.34.39.91.69.55.87-1,1.52-2.21,2.33-3.27a37.22,37.22,0,0,1,2.81-3.22,35.63,35.63,0,0,1,6.74-5.3,41.47,41.47,0,0,1,7.46-3.63,44.37,44.37,0,0,1,4.35-1.31,15,15,0,0,1,4.75-.66C119.61,257.78,119.65,257.59,119.57,257.58Z" style="fill:#e0e0e0"></path><path d="M119.57,257.58a19.09,19.09,0,0,0-7.5.78,37.8,37.8,0,0,0-6.42,2.3,35.46,35.46,0,0,0-10.93,7.92,30.52,30.52,0,0,0-2.46,3,12.69,12.69,0,0,0-1.87,3.06c-.12.34.39.91.69.55.87-1,1.52-2.21,2.33-3.27a37.22,37.22,0,0,1,2.81-3.22,35.63,35.63,0,0,1,6.74-5.3,41.47,41.47,0,0,1,7.46-3.63,44.37,44.37,0,0,1,4.35-1.31,15,15,0,0,1,4.75-.66C119.61,257.78,119.65,257.59,119.57,257.58Z" style="opacity:0.1"></path><path d="M78.58,302.74c-2.45-2.45-9.1-1.88-12.25,5.35s3.46,15.16,4.2,17.39c3-1.75,5.4-.71,10.75-1.75a13.36,13.36,0,0,0,10.24-13.32C91.17,303.79,88.37,299.41,78.58,302.74Z" style="fill:#f0f0f0"></path><path d="M78.48,302a9.93,9.93,0,0,0-3.24,3.36,17.7,17.7,0,0,0-2.1,4.05,17.29,17.29,0,0,0-.93,9.22c0,.12.12,0,.12-.06a18.84,18.84,0,0,1,1.54-9.11,19.23,19.23,0,0,1,3.69-5.37,9.27,9.27,0,0,0,1.4-1.4C79.14,302.42,78.86,301.83,78.48,302Z" style="fill:#e0e0e0"></path><path d="M78.48,302a9.93,9.93,0,0,0-3.24,3.36,17.7,17.7,0,0,0-2.1,4.05,17.29,17.29,0,0,0-.93,9.22c0,.12.12,0,.12-.06a18.84,18.84,0,0,1,1.54-9.11,19.23,19.23,0,0,1,3.69-5.37,9.27,9.27,0,0,0,1.4-1.4C79.14,302.42,78.86,301.83,78.48,302Z" style="opacity:0.1"></path><path d="M68.47,322.19c-1.36-5.22-8-8.15-16.62-8.79a22.61,22.61,0,0,0-21.5,11c-4.52,7.73-6.39,13.88-3.65,14.89s14.36,2.62,21.86,3.29,16.86-.69,23-6.38S75.63,323.38,68.47,322.19Z" style="fill:#e0e0e0"></path><path d="M68.79,321.5c-2.93-.95-6.3-.78-9.33-.44a41.71,41.71,0,0,0-8.81,2A56.93,56.93,0,0,0,41.92,327q-2.19,1.22-4.31,2.55a33.12,33.12,0,0,0-3.86,2.67s0,.22,0,.19c1.42-.64,2.75-1.54,4.1-2.3s2.94-1.63,4.43-2.38A62,62,0,0,1,51,324.07a41.09,41.09,0,0,1,9.17-2,56.69,56.69,0,0,1,8.74.23C69.5,322.37,69.16,321.61,68.79,321.5Z" style="fill:#e0e0e0"></path><path d="M68.79,321.5c-2.93-.95-6.3-.78-9.33-.44a41.71,41.71,0,0,0-8.81,2A56.93,56.93,0,0,0,41.92,327q-2.19,1.22-4.31,2.55a33.12,33.12,0,0,0-3.86,2.67s0,.22,0,.19c1.42-.64,2.75-1.54,4.1-2.3s2.94-1.63,4.43-2.38A62,62,0,0,1,51,324.07a41.09,41.09,0,0,1,9.17-2,56.69,56.69,0,0,1,8.74.23C69.5,322.37,69.16,321.61,68.79,321.5Z" style="opacity:0.1"></path><path d="M84.19,309.38c-5.94-4.72-4-16,16.83-16.64s35.62,4.81,35,11.5c3.35,3.35,1.65,12.72-15.17,15.64S79.9,321.35,84.19,309.38Z" style="fill:#e0e0e0"></path><path d="M126.21,304.32a89.49,89.49,0,0,0-18.57-1.09c-5.7.16-11.62.43-17.14,2a25,25,0,0,0-4.18,1.56,18.7,18.7,0,0,0-1.82,1c-.47.29-1,.54-1.17,1.09a.56.56,0,0,0,.62.66c1.26-.29,2.44-1.27,3.63-1.8a29.25,29.25,0,0,1,3.6-1.31A44.11,44.11,0,0,1,98.4,305a126.91,126.91,0,0,1,17.54-1c3.42,0,6.82.31,10.23.58C126.27,304.57,126.31,304.34,126.21,304.32Z" style="fill:#e0e0e0"></path><path d="M126.21,304.32a89.49,89.49,0,0,0-18.57-1.09c-5.7.16-11.62.43-17.14,2a25,25,0,0,0-4.18,1.56,18.7,18.7,0,0,0-1.82,1c-.47.29-1,.54-1.17,1.09a.56.56,0,0,0,.62.66c1.26-.29,2.44-1.27,3.63-1.8a29.25,29.25,0,0,1,3.6-1.31A44.11,44.11,0,0,1,98.4,305a126.91,126.91,0,0,1,17.54-1c3.42,0,6.82.31,10.23.58C126.27,304.57,126.31,304.34,126.21,304.32Z" style="opacity:0.1"></path></g></g><g id="freepik--Furniture--inject-163"><g id="freepik--Drawer--inject-163"><polygon points="415.7 354.48 419.5 373.32 423.19 375.45 426.85 373.34 430.68 354.48 423.19 350.15 415.7 354.48" style="fill:#e0e0e0"></polygon><polygon points="415.7 354.48 419.5 373.32 423.19 375.45 426.85 373.34 430.68 354.48 423.19 350.15 415.7 354.48" style="opacity:0.05"></polygon><polygon points="423.19 375.45 423.19 358.8 415.7 354.48 419.5 373.32 423.19 375.45" style="fill:#ebebeb"></polygon><polygon points="415.7 354.48 418.15 366.65 423.19 369.56 428.2 366.66 430.68 354.48 423.19 350.15 415.7 354.48" style="opacity:0.05"></polygon><polygon points="448.64 335.46 452.44 354.3 456.13 356.44 459.79 354.32 463.62 335.46 456.13 331.13 448.64 335.46" style="fill:#e0e0e0"></polygon><polygon points="448.64 335.46 452.44 354.3 456.13 356.44 459.79 354.32 463.62 335.46 456.13 331.13 448.64 335.46" style="opacity:0.05"></polygon><polygon points="456.13 356.44 456.13 339.78 448.64 335.46 452.44 354.3 456.13 356.44" style="fill:#ebebeb"></polygon><polygon points="448.64 335.46 451.09 347.63 456.13 350.54 461.15 347.64 463.62 335.46 456.13 331.13 448.64 335.46" style="opacity:0.05"></polygon><polygon points="335.09 307.96 338.89 326.81 342.58 328.94 346.24 326.83 350.07 307.96 342.58 303.63 335.09 307.96" style="fill:#ebebeb"></polygon><polygon points="335.09 307.96 338.89 326.81 342.58 328.94 346.24 326.83 350.07 307.96 342.58 303.63 335.09 307.96" style="opacity:0.05"></polygon><polygon points="342.58 328.94 342.58 312.29 335.09 307.96 338.89 326.81 342.58 328.94" style="fill:#ebebeb"></polygon><polygon points="335.09 307.96 337.55 320.13 342.58 323.04 347.6 320.14 350.07 307.96 342.58 303.63 335.09 307.96" style="opacity:0.05"></polygon><g id="freepik--Cabinet--inject-163"><g id="freepik--cabinet--inject-163"><polygon points="423.19 366.52 464.01 342.94 464.01 254.58 423.19 278.15 423.19 366.52" style="fill:#e0e0e0"></polygon><polygon points="423.19 278.15 332.97 226.09 332.97 314.45 423.19 366.52 423.19 278.15" style="fill:#ebebeb"></polygon><polygon points="332.97 226.09 423.19 278.15 464.01 254.58 373.8 202.52 332.97 226.09" style="fill:#f5f5f5"></polygon><polygon points="417.36 321.93 338.8 276.59 338.8 309.02 337.73 309.64 416.28 354.97 417.36 354.35 417.36 321.93" style="fill:#e0e0e0"></polygon><polygon points="416.28 322.55 337.73 277.21 337.73 309.64 416.28 354.97 416.28 322.55" style="fill:#f5f5f5"></polygon><path d="M380.31,310.12l-7.94-4.58c-1-.6-1.86-.33-1.86.6a3.72,3.72,0,0,0,1.86,2.76l7.94,4.58c1,.6,1.86.33,1.86-.6A3.72,3.72,0,0,0,380.31,310.12Z" style="fill:#e0e0e0"></path><polygon points="417.36 282.77 338.8 237.44 338.8 269.87 337.73 270.49 416.29 315.82 417.36 315.2 417.36 282.77" style="fill:#e0e0e0"></polygon><polygon points="416.29 283.39 337.73 238.06 337.73 270.49 416.29 315.82 416.29 283.39" style="fill:#f5f5f5"></polygon><path d="M380.31,271l-7.94-4.58c-1-.59-1.86-.32-1.86.61a3.74,3.74,0,0,0,1.86,2.76l7.94,4.58c1,.59,1.86.32,1.86-.61A3.74,3.74,0,0,0,380.31,271Z" style="fill:#e0e0e0"></path></g></g><g id="freepik--pot--inject-163"><path d="M412.48,243c-4.52,2.61-4.52,6.84,0,9.45s11.84,2.61,16.36,0,4.52-6.84,0-9.45S417,240.36,412.48,243Z" style="fill:#e0e0e0"></path><path d="M427.85,248.28c3.94-4,6.25-14,2.41-17.23H410.73c-3.83,3.19-1.52,13.21,2.41,17.22a.57.57,0,0,0,.11.11l.13.14c.11.1.23.21.36.31l.09.08c.1.07.19.15.3.22l.51.33a12.94,12.94,0,0,0,11.72,0h0l.51-.33.28-.21.11-.09c.12-.1.24-.2.35-.31l.15-.15Z" style="fill:#ebebeb"></path><path d="M412.43,229.77c-4.45,2.57-4.45,6.75,0,9.32s11.68,2.57,16.13,0,4.46-6.75,0-9.32S416.89,227.2,412.43,229.77Z" style="fill:#fafafa"></path><path d="M415.59,231.6c-2.71,1.56-2.71,4.1,0,5.66a10.83,10.83,0,0,0,9.82,0c2.71-1.56,2.71-4.1,0-5.66A10.83,10.83,0,0,0,415.59,231.6Z" style="fill:#f5f5f5"></path><path d="M425.41,234.29a10.83,10.83,0,0,0-9.82,0,4.44,4.44,0,0,0-1.62,1.48,4.38,4.38,0,0,0,1.62,1.49,10.83,10.83,0,0,0,9.82,0,4.46,4.46,0,0,0,1.62-1.49A4.53,4.53,0,0,0,425.41,234.29Z" style="fill:#ebebeb"></path><path d="M416.19,235.77a22.27,22.27,0,0,1-3.55-4.72c-1.64-2.89-1.94-6.78-1.1-7.26s4.3,3.4,4.3,3.4a20.81,20.81,0,0,1-.36-4.95c.14-2.58.77-4.93,1.51-5.4s2.39,2.78,3.1,5.14,1.14,4.3,1.14,4.3a36,36,0,0,1,1.27-5.43c.86-2.45,1.64-3,2.25-2.76s1,1.38,1.18,4.65a32.7,32.7,0,0,1-.15,4.67s1.22-1.34,2.57-2.64,2.12-1.62,2.54-1.35.54,2.49-1.76,6.65a23.08,23.08,0,0,1-4.33,5.7S421.62,237.82,416.19,235.77Z" style="fill:#e0e0e0"></path></g><g id="freepik--picture--inject-163"><g id="freepik--frame--inject-163"><polygon points="394.04 240.38 392.6 241.09 365.61 225.76 367.06 225.06 394.04 240.38" style="fill:#fafafa"></polygon><polygon points="367.06 225.06 392.73 239.63 396.18 201.36 370.51 186.79 367.06 225.06" style="fill:#fff"></polygon><path d="M362.88,227.06l31.95,18.15,4.08-45.14-32-18.15Zm6.31-41,27,15.33-3.58,39.73-27-15.32Z" style="fill:#f0f0f0"></path><polygon points="365.61 225.76 367.06 225.06 370.51 186.79 369.19 186.03 365.61 225.76" style="fill:#e0e0e0"></polygon><polygon points="366.95 181.92 368.42 181.23 400.37 199.38 398.9 200.07 366.95 181.92" style="fill:#fafafa"></polygon><polygon points="400.37 199.38 398.9 200.07 394.83 245.21 396.3 244.52 400.37 199.38" style="fill:#e0e0e0"></polygon></g><g id="freepik--land--inject-163"><polygon points="368.18 224.32 391.84 237.76 392.43 231.32 387.91 212.42 383.77 218.91 384.68 224.34 377.57 204.31 368.76 217.87 368.18 224.32" style="fill:#f0f0f0"></polygon><path d="M388.21,204.45a3.3,3.3,0,0,1,1.58,2.9c-.09,1.05-1,1.46-1.92.91a3.3,3.3,0,0,1-1.58-2.9C386.39,204.31,387.25,203.9,388.21,204.45Z" style="fill:#f0f0f0"></path></g></g></g></g><g id="freepik--character-2--inject-163"><g id="freepik--Character--inject-163"><g id="freepik--Bottom--inject-163"><g id="freepik--bottom--inject-163"><polygon points="320.18 409.33 324.62 407.23 320.24 406.05 320.18 409.33" style="fill:#263238"></polygon><path d="M364.24,417.28s-52.42-22.87-53.07-19.47a4.69,4.69,0,0,0,0,2.05l-.15-.19,1,6.35a15.89,15.89,0,0,0,8.16,3.31c0-.31,0-2.2.06-3.28a27.51,27.51,0,0,1,4.62,2.37c3.36,2.15,5.52,5.9,9.09,10.26,2.6,3.17,7.23,4.66,14.09,5.61,7.39,1,13.9-.33,15.73-2.24C365.24,420.53,364.5,417.72,364.24,417.28Z" style="fill:#263238"></path><path d="M362.79,416.1c-.5-.51-2.37-2.5-4.9-4.66-2.22-1.9-4.79-4.29-7.57-6.23a28.93,28.93,0,0,1-3.75-3c-.92-1-1.79-1.93-2.61-3a55,55,0,0,1-6.33-10.35c-.82-1.73-2.31-5.53-1.89-12.57.65-10.67,1.55-14.52,1.59-21.45l-25,3.25c.73,3.84,1.51,12.42,1.89,16.79.59,6.65,1.6,7.28-1.09,13.9-.79,2-2,3.83-2.08,5.92-.16,3.4,2.61,6.34,5.71,8,2.57,1.39,5.52,2,8,3.45a25.48,25.48,0,0,1,6.53,6.19c1.76,2.18,3.18,4.75,5.65,6.28,2.75,1.7,5.36,2.23,8.54,2.86a47.84,47.84,0,0,0,11.48.57C362.41,421.71,366.46,419.81,362.79,416.1Z" style="fill:#ffbda7"></path><path d="M359.78,412.38c-2.25-1.83-5.45-4.46-9.32-7.41a10.2,10.2,0,0,0-8.13.7c-7.79,3.93-9.12,9.52-9.12,9.52a11.07,11.07,0,0,0,6.36,5.37c9,3.8,25.1,2.62,25.26-1.37C364.93,416.64,362.53,414.61,359.78,412.38Zm-46.15-25s-.53,1.31-1.9,3.88-1.63,5.13.08,7.7c2.26,3.4,5,4.45,7.89,5.17C322.19,396.58,316.75,389,313.63,387.4Z" style="fill:#37474f"></path><path d="M281.37,405.15c.18,2.59-.09,10.31.46,16.09.51,5.25,2,13.4.77,19.62-1.29,6.38-7.06,13.3-15.56,7.87-5.27-3.36-7.5-7.59-8.47-15.13-.67-5.24,1.48-12.62,3.31-19.16,2.15-7.64,2.92-11.71,2.92-11.71Z" style="fill:#263238"></path><path d="M263,367.05c0,7.1.88,18.85,1.26,26.71,0,3.66.11,8.79-.66,12.69-1,5.06-2.1,12.08-2.83,15.36-1,4.59-1.81,7.49.17,12.51a5.93,5.93,0,0,0,.63,1.12c2.66,4.1,9.16,7,11.18,6.41a3.77,3.77,0,0,0,3.64.95,6,6,0,0,0,.67-.17,4.27,4.27,0,0,0,.67-.27,6.38,6.38,0,0,0,3.27-4,8.73,8.73,0,0,0,.28-1.12,37.88,37.88,0,0,0,.39-12.4c-.18-3-.29-7.3-.16-11.92s4.5-28.79,6.19-43.31Z" style="fill:#ffbda7"></path><path d="M259.69,427.77c5-2.14,20-2.77,22.58,3.34.27,5.83,0,9.55-4.07,14.8-5.38,7-13,.12-15.93-4.3S259.12,430.94,259.69,427.77Z" style="fill:#37474f"></path><path d="M279.76,192.44c-6.89,10.89-13.21,22.46-14,47.39-1,32.84,2.44,62,2.13,66s-2.05,10.48-5.07,30.11.42,57.72.42,57.72,2.23,4.51,10.07,5.52c7.24.93,10.69-2.27,10.69-2.27s12.36-52.46,15.64-64.22,8.23-53.85,8.23-53.85l1.23,22.33s-2.7,10.79-1.27,28.17,6.62,51,6.62,51,3.23,3.38,10.95,3.22c7.05-.15,10.67-3.83,10.67-3.83s7.86-66,8.74-85.57,1.12-68.58-4-97.87Z" style="fill:#37474f"></path><path d="M312.61,238l-4.74,40.83,1.23,22.33.61-23.07,6.79-36.92c5-.93,17.9-9,19.12-16.95C328.55,234.49,312.61,238,312.61,238ZM281.69,357.25q-2.44,15.4-4.47,30.87,3.28-15.27,6.15-30.6c1.94-10.23,3.75-20.43,5.54-30.71s3.39-33.53,4.15-43.89,1.26-20.74,1.62-31.12c-1.2,10.33-2.26,20.66-3.32,31s-2.92,33.5-4.6,43.72S283.28,347,281.69,357.25Zm53.85-74.45c0,4.5.09,9-.19,13.48s-.78,9-1.22,13.46l-1.32,13.49q-1.33,13.5-2.34,27,2.26-13.39,4-26.85c1.18-9,2.3-17.92,3-27,.38-9.14,0-18.15-.46-27.2s-1.2-18.07-2.25-27.06l.55,27.11C335.43,273.77,335.53,278.29,335.54,282.8Z" style="fill:#263238"></path></g></g><g id="freepik--Top--inject-163"><path d="M285.31,75.9c-8.06,2.7-9.78,10.61-10,24.16-.07,5.26.13,9.92-4.32,13.5-2.37,1.92-5.19,3.33-7.21,5.62-3.35,3.79-3.64,10.29.11,13.69a8.29,8.29,0,0,0-5.12,6.86,12.29,12.29,0,0,0,2.46,8.46c3.62,5.06,10.66,7,16.64,5.86,1.47,4,5.75,6.56,10,6.83s8.46-1.44,12-3.85c2.25,4.26,7.89,5.64,12.32,4.94a16.11,16.11,0,0,0,11.17-7.29A1.7,1.7,0,0,1,324,154a1.58,1.58,0,0,1,.68-.12c3.05-.07,5.95-.08,8.69-1.5a15.07,15.07,0,0,0,6.19-5.15,11,11,0,0,0,1.7-5.32,8.59,8.59,0,0,0-.79-4.62c2.58-2,2.82-8,2-11.22s-2.93-5.89-5.21-8.27-4.8-4.56-6.74-7.23a11.74,11.74,0,0,1-2.25-7.68c0-1.61-.75-4.56.37-5.95,0,0,4.9-6.08,4.61-12.57a20.32,20.32,0,0,0-15.95-19.19C307.36,62.69,289.33,63.72,285.31,75.9Z" style="fill:#263238"></path><path d="M324.6,129.66c6.18.53,15.86,1.36,21.66,13.91,6.89,14.9,12.81,28.93,17.81,48.82l-14.82.94-13.17-21.11Z" style="fill:#ffbda7"></path><path d="M352.26,174.9a42.47,42.47,0,0,1-6.32-8.22c3.27-8,.41-22.21-12.06-29.43l-2.55,17.35,4.75,17.62,13.17,21.11s13.92,10,14.42,3.08c0-.34,0-.66,0-1-.13-1.51-.33-3-.56-4.53C361.6,183.16,355.32,177.86,352.26,174.9Z" style="fill:#f0997a"></path><path id="freepik--Chest--inject-163" d="M271.43,208.05c-2.82-6.15,3.28-12,4.25-21.15.67-6.26-3.42-21.61-3.42-21.61s10.73-9.2,7-33.27l20.46-3.56c15.55-.9,24.88,1.2,24.88,1.2,4.19,3.22,11.31,8.18,16.11,15.78,7.22,11.42,4.23,20.67-2.4,28.4-.06,1.48-.23,9.31,3.93,25.16.59,2.25,2.11,6.22.26,8.33C332.1,219.15,289.87,223.48,271.43,208.05Z" style="fill:#92E3A9"></path><g id="freepik--Head--inject-163"><path d="M282.79,98.65c1.73-2.06,5.32-3,7.15-.26,1.13,1.69,1.48,4.56,3.13,4.09,1-.28,1.34-1.49.91-3.68,0,.12,1.31-.7,1.4-.78,1.24-1.1.93-2.71,1.32-4.15.43-1.6,1.68-2.81,2.42-4.25,1.17-2.26.67-5,.17-7.42-.22-1-.37-2.26.37-3a3,3,0,0,1,2.14-.64,36.93,36.93,0,0,1,7.11,1.25,12,12,0,0,0,7.11-.23c1-.41,1.79-1,2.71-1.49a4.7,4.7,0,0,1,3-.62A5,5,0,0,1,324,78.81c3.15,2.91,4.2,7.54,5,11.61a55.37,55.37,0,0,1,.6,9.28c.41,13.25-1.89,16.55-4.63,18.88-2.35,2-6,3.1-10.38,3.15l.14,7.53s6.45,11.76,3.5,18.7c0,0-10.13-4.09-16.32-9.09-7.6-6.14-8.89-9.14-8.89-9.14l-.31-20.88S289.63,113.5,285,110C281.1,107.17,280.22,101.73,282.79,98.65Z" style="fill:#ffbda7"></path><path d="M314.66,121.73c-8.32.14-16.45-3.31-19.54-10.77,0,0,.35,5,3.53,8,6.35,6,16.06,5.4,16.06,5.4Z" style="fill:#f0997a"></path><path d="M305.17,95a2,2,0,1,0,2.25-1.82A2,2,0,0,0,305.17,95Z" style="fill:#263238"></path><path d="M321,95.53A2,2,0,1,0,322.35,93,2,2,0,0,0,321,95.53Z" style="fill:#263238"></path><path d="M304.56,87.4l4.73-2.29a2.75,2.75,0,0,1-1.27,3.6A2.55,2.55,0,0,1,304.56,87.4Z" style="fill:#263238"></path><path d="M325.37,86.26l-4.93-1.82a2.76,2.76,0,0,0,1.61,3.46A2.56,2.56,0,0,0,325.37,86.26Z" style="fill:#263238"></path><path d="M318,108.37l-7.34-2a4,4,0,0,0,2.76,4.79A3.71,3.71,0,0,0,318,108.37Z" style="fill:#b16668"></path><path d="M315.7,111a4.42,4.42,0,0,0-4.58-3.28,4.85,4.85,0,0,0-.55.09,4,4,0,0,0,2.83,3.33A3.67,3.67,0,0,0,315.7,111Z" style="fill:#f0997a"></path><path d="M301.32,90.9l-12.81,6.19a3.87,3.87,0,0,1,1.74,1.79L302,93.08Z" style="fill:#263238"></path><path d="M330.34,88.86l-.82-.06c-2.66-.16-6.11-.07-8.18.67-2.6.94-3.51,1.9-5,2S313.82,90.66,311,90c-2.23-.53-5.95-.26-8.8.17l-.89.15a1.52,1.52,0,0,0-1,1.54,3.15,3.15,0,0,0,.82,1.7,1.81,1.81,0,0,1,.28.69c.29,1.2.45,3.54,1,4.83a5.94,5.94,0,0,0,1.14,1.72,4.55,4.55,0,0,0,.58.49l.34.22a4.68,4.68,0,0,0,1,.45l.17,0,.27.07.28.06a7.55,7.55,0,0,0,.89.1H308a6.41,6.41,0,0,0,6.12-4c.89-1.9.62-4.48,2.29-4.56h.16l.15,0c1.25.23,1.14,2.62,2,4.31a7,7,0,0,0,1.24,1.84,3.83,3.83,0,0,0,.29.28l.16.14.16.12.15.11.16.1.13.08.09,0a5.28,5.28,0,0,0,1.48.54l.14,0a7.35,7.35,0,0,0,1.8.1,5.24,5.24,0,0,0,5-3.69,32.1,32.1,0,0,0,.83-4.91,1.51,1.51,0,0,1,.28-.64,3.39,3.39,0,0,0,.68-1.8A1.45,1.45,0,0,0,330.34,88.86Zm-17.2,7.67a5.83,5.83,0,0,1-1.25,2.65h0a5.28,5.28,0,0,1-4,1.7A4.22,4.22,0,0,1,304,99.17L303.9,99a1.74,1.74,0,0,1-.11-.18l-.09-.17a1.09,1.09,0,0,1-.08-.15l-.06-.12a1.17,1.17,0,0,0-.05-.11l-.07-.19h0a4.25,4.25,0,0,1-.19-.53v0l-.09-.32c0-.18-.09-.36-.12-.51a.3.3,0,0,0,0-.1s0-.07,0-.1c-.27-1.27-.57-3.77.06-4.37s2.28-1.26,5-1.12h.29a10.09,10.09,0,0,1,1.23.16c.17,0,.32.06.48.09a10,10,0,0,1,1.2.34l.37.14.4.17.08,0,.15.08a2.31,2.31,0,0,1,.81.62C313.58,93.41,313.44,95.08,313.14,96.53ZM329,95.18c-.17,1-.53,3.22-2.41,4.28a4.63,4.63,0,0,1-2,.56,4.31,4.31,0,0,1-4.14-1.75h0a.83.83,0,0,1-.08-.12l-.09-.13a.43.43,0,0,0,0-.07l-.11-.2a2.56,2.56,0,0,1-.11-.24l-.06-.11s0,0,0-.07a.36.36,0,0,1,0-.09l0-.08a6.5,6.5,0,0,1-.28-1c-.31-1.42-.5-3.07,0-3.87s2.45-1.76,4.35-2.09a12.24,12.24,0,0,1,1.23-.16h1.09l.34,0a5.5,5.5,0,0,1,.62.08l.15,0h0l.1,0,.15,0,.18,0,.3.1.05,0a2.21,2.21,0,0,1,.68.4C329.39,91.37,329.17,93.88,329,95.18Z" style="fill:#37474f"></path><path d="M314.6,96.73l2.49,8,6.43-3.22c-.25-.37-6.35-7.33-6.84-7.81a1.22,1.22,0,0,0-1.25.49A7.26,7.26,0,0,0,314.6,96.73Z" style="fill:#f0997a"></path></g><path d="M330.28,174.54a14.27,14.27,0,0,0-7.43-5.73,85.8,85.8,0,0,1-10-4.69,18.44,18.44,0,0,1-3.81-2.35,4.54,4.54,0,0,1-1.33-1.93,2.85,2.85,0,0,1,.24-2,4.73,4.73,0,0,1-1.92-1.66,3.23,3.23,0,0,1-.31-2.3,1.9,1.9,0,0,1,.95-1.15c-.44-.74-1.77-2.87-.36-4.45.49-.37,1.23-.2,1.84-.17s2,.27,2.3.33a1.49,1.49,0,0,1,.55-.48,7.09,7.09,0,0,1,4.4-.65,24.77,24.77,0,0,1,4.78,1.49c1.68.6,3.44,1,5.15,1.51a5.23,5.23,0,0,0,1.1.22c.85,0,1.68-.34,2.53-.24a7.91,7.91,0,0,1,2.11.64,7.7,7.7,0,0,1,3.49,3.21c2.24,3.85,3.65,8,6.3,11.61a65.32,65.32,0,0,0,7.66,8.46c4.36,4.22,12.69,8,15.08,16.34,1.6,5.53,1.5,13.28-2.31,16.56-2.5,2.16-11.85.42-17-5.16C338.26,195.36,332.52,178.29,330.28,174.54Z" style="fill:#ffbda7"></path><path d="M310.68,148.41a68.57,68.57,0,0,1,15.21,4.85A33.4,33.4,0,0,0,310.68,148.41Zm5.3,5.38c-2.94-.75-6.06-1.5-9.1-1,6.08,0,12,2.23,17.59,4.44A36.38,36.38,0,0,0,316,153.79Zm-6.86,3.1a1.65,1.65,0,0,0-1.36,1.74c.13-1.93,2.34-1.58,3.67-1.26a65,65,0,0,1,13.2,4.4A37.85,37.85,0,0,0,311.49,157,7.54,7.54,0,0,0,309.12,156.89Z" style="fill:#f0997a"></path><path d="M279.26,132c-7.38,2.22-16.74,7.86-14.43,22.59,2.17,13.86,11.22,44.49,14.31,52.13,3.5,8.68,7.09,11.73,11.74,12.75,4,.87,8.47-1.73,11.81-4.1,9.56-6.77,15.79-20.36,22.55-34.58a90.48,90.48,0,0,0,6.91-21.05,22.26,22.26,0,0,0,.23-5.09,14.33,14.33,0,0,0-1.21-4.65,6.17,6.17,0,0,1-.29-.65,4.52,4.52,0,0,1-.1-1.16,3.87,3.87,0,0,0-.94-2.62,6.55,6.55,0,0,0-1-.78,1.65,1.65,0,0,1-.3-.29c-.25-.36-.12-.83-.16-1.26a1.93,1.93,0,0,0-2-1.56,3.45,3.45,0,0,0-2.52,1.68.49.49,0,0,1-.18.17.57.57,0,0,1-.26,0,3,3,0,0,0-1.26.1,2.36,2.36,0,0,0-1,.61,5,5,0,0,0-1.08,2.53c-.32,1.5-.55,3-.88,4.52-.65,3-.91,6-2.5,8.67-.14.24-.37.51-.65.45s-.35-.37-.39-.63c-.41-2.69,1.16-5.51-.94-7.86-1.82-2-2.1,2-2.39,3l-1.17,4.2a25.51,25.51,0,0,0-1.28,7.1c0,2.28.66,4.52.57,6.8a8.81,8.81,0,0,1-2.46,6.07c-6.21,6.28-9,8.77-9,8.77l-4.84-23.19s-.73-13.31-6-23.83C284.57,134,279.26,132,279.26,132Z" style="fill:#ffbda7"></path><path d="M324,143.83c.66,1.13.41,2.55.41,3.81A49,49,0,0,1,322.49,159c.35-2.19.78-5.38,1.11-7.61.27-1.88.46-3.81.61-5.71a4.07,4.07,0,0,0-.19-1.87Z" style="fill:#f0997a"></path><path d="M328.4,144.68a46.55,46.55,0,0,1-2,15.44c1.08-5,1.32-10.36,2-15.44Z" style="fill:#f0997a"></path><path d="M330.88,149.53a31.07,31.07,0,0,1-1.26,11.58c.39-3.42,1-8.19,1.26-11.58Z" style="fill:#f0997a"></path><path d="M302.69,215.39c10.72-8.18,15.85-21.26,21.67-33a96.89,96.89,0,0,0,6.81-18.68,25.9,25.9,0,0,0,1-9.81,19.17,19.17,0,0,0-1.47-4.74c0-1.71-.25-3.29-1.86-4.2a1.26,1.26,0,0,1-.55-1.22,1.76,1.76,0,0,0-2.27-1.81,3.88,3.88,0,0,0-2.07,1.67.52.52,0,0,1-.42.13,2.76,2.76,0,0,0-1.72.27c-1.46.85-1.47,2.83-1.84,4.32-.64,2.89-1.18,7-2.17,9.75a9.83,9.83,0,0,1-1.15,2.26c-1.11.95-1.2-1-1.16-1.69.09-2.39.92-5.22-1.18-6.94-1.48-1-1.57,2.78-1.93,3.61l-.67,2.4c-.87,3.18-2,6.41-1.64,9.74s1.12,6.79-.59,9.81a17.59,17.59,0,0,1-3.28,3.76c-2.36,2.34-4.74,4.67-7.21,6.89,2.45-2.24,4.81-4.59,7.15-6.95a16.94,16.94,0,0,0,3.22-3.76,9.64,9.64,0,0,0,1-4.78c0-1.65-.37-3.29-.52-4.95-.35-3.36.75-6.62,1.62-9.82l.66-2.4c.37-1.18.33-2.53,1-3.62,1.07-1.23,2.37,1.09,2.61,2,.44,1.69,0,3.37-.06,5,0,3.35,1.24.84,1.79-.67,1-2.7,1.51-6.87,2.13-9.71.35-1.95.7-4.82,3.25-4.89.23-.05.65.1.8,0a4.09,4.09,0,0,1,2.22-1.76,2.1,2.1,0,0,1,2.7,2.14.9.9,0,0,0,.41.93,3.94,3.94,0,0,1,1.65,1.93,8.17,8.17,0,0,1,.33,2.49,18.39,18.39,0,0,1,1.46,4.76,26.37,26.37,0,0,1-1,9.92,97.44,97.44,0,0,1-6.89,18.71c-5.83,11.73-11.07,24.82-21.88,32.9Z" style="fill:#f0997a"></path><path d="M299,187.91c-4.57,2.15-8.45,6.46-9.2,8.91,0,0-.41-7.39,8.57-11.61Z" style="fill:#f0997a"></path></g></g></g><g id="freepik--character-1--inject-163"><g id="freepik--character--inject-163"><g id="freepik--bottom--inject-163"><path d="M157.85,371.67c.83,10.36,1.37,18.05,1.22,19.82-.55,6.45-3.9,10.44-6.49,13.09-5.42,5.55-9.26,7.76-16,12.54.89,2.57,14.75,2.82,18.73,1a147.25,147.25,0,0,0,16.78-9.33c5.53-3.9,6.86-6.31,7.11-12.45,0-.77.59-5.76.54-6.1.08-1.44.94-9.22,2.07-18.8Z" style="fill:#c8856a"></path><path d="M239.36,392.15l.53-24.39-26.15,2.46,5.55,23.36s2.75,33,4,38.4c4.18,17.32,18.23,10.33,19.9,1.15C244.34,427,239.36,392.15,239.36,392.15Z" style="fill:#c8856a"></path><path d="M125.55,426.88c-.36,0-.64,4,1.41,5.58,2.37,1.8,9.17,4.56,17.81,2.86s13.18-4.72,16.48-7.88,7.91-7.6,11.79-8.74c3.61-1.05,9.43-3.51,10.53-4.72s.61-6.26.61-6.26Z" style="fill:#263238"></path><path d="M179.75,390.23a2.67,2.67,0,0,1,1.51,1.62c.36,1.38.49,3.16,1.21,5.41,1,3.12,2,9.59,1.66,12.21s-8.12,5.35-11.84,7.06-8.1,5.11-11.84,8.64-12.27,7.62-17.94,8.08c-8.66.69-14.43-1.3-16.36-4.31-2.4-3.73-1.59-7.82,8.07-13.11,1.82-1,8.19-5.37,10.36-6.94a51.19,51.19,0,0,0,6.44-5.51,39.51,39.51,0,0,0,2.85-3.22,13.62,13.62,0,0,0,2.31-3.4c.1-.27.16-.59.24-.87a15,15,0,0,0,.5-2.38c.1-.85.12-2.07.88-2.62s13.29,1.09,14.25,2.42a7.39,7.39,0,0,1,1,3.57c.06.58.09,1.17.13,1.75,0,.25,0,.71.29.58s.63-1,.74-1.32c.23-.67.37-1.39.63-2.05a5.85,5.85,0,0,1,1.1-2.2c1.57-1.5,3.19-1.34,3.63-1.85C179.62,391.79,179.73,390.73,179.75,390.23Z" style="fill:#37474f"></path><path d="M133.69,416.13c12.6,0,16.76,9.87,17.61,14.66a29.68,29.68,0,0,1-8.79,2.46c-8.66.69-14.78-1.27-16.72-4.29C123.53,425.44,125,420.1,133.69,416.13Z" style="fill:#fafafa"></path><path d="M152.21,417.33a.62.62,0,0,0,.38-.16.63.63,0,0,0,0-.88c-1.89-2-7.84-6.27-12.37-5.48a.62.62,0,0,0,.21,1.22c4.23-.73,9.76,3.49,11.26,5.11A.61.61,0,0,0,152.21,417.33Z" style="fill:#f5f5f5"></path><path d="M157.41,413.81a.57.57,0,0,0,.38-.16.62.62,0,0,0,0-.87c-1.89-2-7.85-6.29-12.37-5.48a.61.61,0,0,0-.5.71.6.6,0,0,0,.71.5c4.23-.73,9.76,3.5,11.26,5.11A.58.58,0,0,0,157.41,413.81Z" style="fill:#f5f5f5"></path><path d="M162.18,409.88a.63.63,0,0,0,.38-.17.62.62,0,0,0,0-.87c-1.89-2-7.86-6.28-12.37-5.48a.62.62,0,0,0-.5.71.61.61,0,0,0,.71.5c4.22-.73,9.77,3.5,11.26,5.11A.62.62,0,0,0,162.18,409.88Z" style="fill:#f5f5f5"></path><path d="M166.85,405.94a.57.57,0,0,0,.37-.16.62.62,0,0,0,.05-.87c-2.6-2.89-8.9-6.27-13.42-5.47a.61.61,0,0,0,.21,1.21c4.07-.71,10,2.53,12.3,5.09A.59.59,0,0,0,166.85,405.94Z" style="fill:#f5f5f5"></path><path d="M221.33,433.72c.39,5.74,1.32,9.54,3.38,12.89s5.91,4.36,9.78,3.33,8.81-3.73,9.86-8.69,1.68-8.38.74-13.69Z" style="fill:#263238"></path><path d="M239.36,392.15c1.6-.18,1.26,7.73,2.26,15.44,1.07,8.27,2.3,11.54,3.25,18.32,1.09,7.74-.15,11.22-2.81,15.94s-12.18,9.42-17,2.76c-3.91-5.43-4.13-11.5-3.86-19.25.27-8-.56-13.37-1.27-19.41-.74-6.25-2.05-11.71-.67-12.37a57.14,57.14,0,0,0,1.42,6c.17.43.8,1.5,1-.12.07-.48-.09-1.59-.06-2.07a2,2,0,0,1,1.43-1.87,15.32,15.32,0,0,1,6.8-1.58c3.12,0,5.82-.18,7.57.69,1.05.53,1,1.53,1.16,2.51.15,1.16.17,1.88.45,1.65C239.66,398.33,239.36,392.15,239.36,392.15Z" style="fill:#37474f"></path><path d="M245.36,430.39a19.37,19.37,0,0,1-2.86,11.82c-2.66,4.72-13,9.45-17.75,2.79-2.38-3.31-3.06-7.26-3.42-11.28C224.1,428.51,240.85,426,245.36,430.39Z" style="fill:#fafafa"></path><path d="M224.73,425.24a.45.45,0,0,0,.19-.05c.07,0,7.43-3.19,14.64-1.59a.61.61,0,0,0,.71-.46.6.6,0,0,0-.46-.71c-7.63-1.68-15.13,1.55-15.41,1.69a.59.59,0,0,0-.27.8A.58.58,0,0,0,224.73,425.24Z" style="fill:#f5f5f5"></path><path d="M239.14,417.82a.6.6,0,0,0,.12-1.16c-7.19-2.35-15.1,1.39-15.4,1.55a.6.6,0,0,0-.24.81.6.6,0,0,0,.8.24c.07,0,7.78-3.67,14.47-1.47A.55.55,0,0,0,239.14,417.82Z" style="fill:#f5f5f5"></path><path d="M238.83,412.37a.6.6,0,0,0,.5-.39.6.6,0,0,0-.37-.76c-7.91-2.75-15.41,1.33-15.69,1.51a.6.6,0,1,0,.63,1c.06,0,7.31-3.95,14.67-1.4A.6.6,0,0,0,238.83,412.37Z" style="fill:#f5f5f5"></path><path d="M238.38,407a.59.59,0,0,0,.14-1.15c-7.41-2.69-15.49,1.5-15.79,1.68a.59.59,0,1,0,.6,1c.07,0,7.9-4.08,14.79-1.58A.6.6,0,0,0,238.38,407Z" style="fill:#ebebeb"></path><path d="M229.33,196.11c1.63,16.22,2.19,20.21,3.32,56.24,1.11,35,1.12,40.07,1.31,44.28.45,9.66,6,13.52,6.41,36.3.4,20.87-.32,46.43-.32,46.43s-3.81,3.52-11.74,3.95a25.06,25.06,0,0,1-12.47-2.48s-10.61-46.78-13.94-61.16c-3.92-16.92-10.29-46.39-10.29-46.39s-3.2,26.29-4.4,34.76c-1.14,8.08,1.63,11.23-.11,29.32-1.39,14.43-5.5,38.54-5.5,38.54a25,25,0,0,1-11.85,2.85c-9.07-.42-11.93-3.53-11.93-3.53s-5.08-54-5.12-74.58c0-21.84,1.28-75,3.62-107.1Z" style="fill:#455a64"></path><path d="M191.61,273.28,187,237s-11.78-3.58-19.13-11.86c.35,6,10.66,14,15.57,15.4l5.48,32.21L187.21,308Z" style="fill:#37474f"></path><path d="M208,201a49.09,49.09,0,0,1,4.12,9.63,90.88,90.88,0,0,1,2.62,10.14c.66,3.42,1.19,6.87,1.52,10.34a68.93,68.93,0,0,1,.32,10.46c-.71-3.42-1.36-6.81-2-10.21s-1.28-6.79-2-10.16-1.37-6.75-2.11-10.12S208.9,204.32,208,201Z" style="fill:#37474f"></path><path d="M212.47,202.37a37.27,37.27,0,0,1,4.51,5.46,52,52,0,0,1,3.62,6.09,45.39,45.39,0,0,1,2.66,6.59,27.65,27.65,0,0,1,1.35,7l-2.94-6.36c-1-2.08-2-4.17-3-6.22s-2.08-4.12-3.12-6.2S213.42,204.55,212.47,202.37Z" style="fill:#37474f"></path><path d="M205.23,242.47c1.12,10.87,2.08,21.74,3.06,32.61s3.18,22.89,4.78,33.64,9.31,53,10.58,63.9c-2.11-10.72-11-52.75-12.74-63.58s-3.66-22.93-4.32-33.83S205.5,253.39,205.23,242.47Z" style="fill:#37474f"></path><path d="M164.59,242l-1.13,28.5c-.15,4.75-.35,9.5-.46,14.24s-.28,9.5-.09,14.18,1.52,50.14,1.1,59.66c-1.35-10.57-2.76-50-3.29-59.57-.19-9.62.41-19.09,1-28.6S163.34,251.44,164.59,242Z" style="fill:#37474f"></path><path d="M182.67,370.35l-1.35,10s-5,2.45-13.27,1.92-10.23-3.38-10.23-3.38l-.82-9.46s3.13,2.45,10.73,2.78C177.56,372.62,182.67,370.35,182.67,370.35Z" style="fill:#37474f"></path><path d="M240.49,372.34l-.31,10s-3.93,3.19-12.21,4S216,384.15,216,384.15l-1.71-8.81s4.15,1.77,11.74,1.1A45.68,45.68,0,0,0,240.49,372.34Z" style="fill:#37474f"></path></g><g id="freepik--top--inject-163"><path d="M172.49,118.37c-6.19-.14-16,3.07-21.94,15.75-7,14.81-9.9,20-17,39.18l13.86,5.25,12.82-17.15Z" style="fill:#c8856a"></path><path d="M160.22,161.4l3.61-13.29c-3.87,2.66-11.43,7.86-14.2,9.83-3.79,2.7-9.68,5.05-12.36,10.63l16.13,2Z" style="fill:#af6152"></path><path d="M174.06,117.41c-14.43,1.61-18.34,4.07-24.95,17.44-4.36,8.83-9.79,23.27-9.79,23.27s2.82,2.64,9.12,4.35c8,2.16,12.75.13,12.75.13Z" style="fill:#263238"></path><g id="freepik--chest--inject-163"><path d="M229.35,121.62s5.38,8.44,5,30.44c-.18,10.32-3.53,19.32-3.81,31.35-.27,11.49,1.54,29.21,1.54,29.21-12.12,9.61-65.13,12-76.68-3.48,0,0,.49-18.2,1.15-37.67.49-14.52,2-25.72,3.7-32.57,2.75-11.06,10.6-19.25,13.83-21.49a85,85,0,0,1,26.75-2C212.16,116.61,223.58,120,229.35,121.62Z" style="fill:#f5f5f5"></path><path d="M193.93,115.09v1a66.53,66.53,0,0,1,6.77.34c10.2,1.06,20.47,3.94,26.6,5.66l1.35.37c.93,1.76,5,10.54,4.63,29.53a89.32,89.32,0,0,1-1.77,14.42,107.83,107.83,0,0,0-2,16.93c-.24,10.24,1.17,25.56,1.48,28.75-5.85,4.19-20.62,7.09-36.34,7.09-18.75,0-33-3.9-38.17-10.44.07-2.7.54-19.56,1.14-37.28.43-12.94,1.77-24.73,3.67-32.35,2.59-10.4,9.92-18.37,13.24-20.77a90.37,90.37,0,0,1,19.44-2.25v-1m0,0a91.74,91.74,0,0,0-19.87,2.32c-3.23,2.24-11.08,10.43-13.83,21.49-1.7,6.85-3.21,18-3.7,32.57-.66,19.47-1.15,37.67-1.15,37.67,5.9,7.9,22.65,11.14,39.23,11.14,15.84,0,31.53-3,37.45-7.66,0,0-1.81-17.72-1.54-29.21.28-12,3.63-21,3.81-31.35.4-22-5-30.44-5-30.44-5.77-1.6-17.19-5-28.54-6.19a67.41,67.41,0,0,0-6.88-.34Z" style="fill:#e0e0e0"></path></g><g id="freepik--head--inject-163"><path d="M212.3,65.21s3.75.16,6.36,4.69c1.32,2.27,2.35,6.47-.58,18.67a48.39,48.39,0,0,1-5.46,13.54,6.13,6.13,0,0,1-3.45,2.89l-.08-9.3.12-6.49s-5.5-4.55-6.13-9.19c-.81-6,1.46-9.44,1.46-9.44Z" style="fill:#37474f"></path><path d="M213.6,65.48c-1.11-5.19-8.1-11.19-21.17-11.44a25,25,0,0,0-22.2,12.09c-3.5,6.23,2,11.28,2,11.28l32.66-2.75Z" style="fill:#37474f"></path><path d="M217.86,98.13c-4.84,2.5-7.22-1.23-7.22-1.23l-.71,22.15c-9,12.68-34.23,7-24.24-2.59l.12-5.28a29.53,29.53,0,0,1-4-.28,11.51,11.51,0,0,1-9.85-7.8,29.79,29.79,0,0,1-1.52-7.73,64.86,64.86,0,0,1,.62-13.79c.54-3.62.41-5.49,1-8.45.42-2.26,1.32-4.75,3.39-5.84,5.14-2.7,10.1.78,17.47,3.32,3.06,1,10.39,1.31,12.28.36-2.44,2.83-2.11,11.5,1.76,14.89a8.1,8.1,0,0,0,2,2.33c1.64,1.3,2.82-2.24,4.11-3.66s6.27-2.8,8.6,1.64A8.66,8.66,0,0,1,217.86,98.13Z" style="fill:#c8856a"></path><path d="M185.81,111.18c5.71-.22,11.06-1.1,14.38-2.61s6.14-6.06,7-10.52c.13,3.56-1.24,9.93-6.25,12.73s-11.42,3.1-15.15,3.3Z" style="fill:#af6152"></path><path d="M197.44,77.33l-4.76-2.16A2.67,2.67,0,0,0,194,78.66,2.57,2.57,0,0,0,197.44,77.33Z" style="fill:#37474f"></path><path d="M179.68,74.24l-4.89,1.94a2.56,2.56,0,0,0,3.36,1.48A2.68,2.68,0,0,0,179.68,74.24Z" style="fill:#37474f"></path><path d="M195.57,83.11a2.25,2.25,0,1,1-2.24-2.2A2.22,2.22,0,0,1,195.57,83.11Z" style="fill:#263238"></path><path d="M179.85,82.45a2.25,2.25,0,1,1-2.24-2.2A2.22,2.22,0,0,1,179.85,82.45Z" style="fill:#263238"></path><path d="M187.4,79.55l-1.29,13.36-7.27-2.35A31.19,31.19,0,0,1,187.4,79.55Z" style="fill:#af6152"></path></g><path d="M192,93.36c0-.09-.12-.19-.22-.15a1.49,1.49,0,0,0-.69.6,7.49,7.49,0,0,1-.51.61,4.88,4.88,0,0,1-1.32,1,5.38,5.38,0,0,1-1.7.55c-.34,0-.69.11-1,.13a3.25,3.25,0,0,0-.88.08c-.21.08,0,.41.1.47a2.86,2.86,0,0,0,1.08.22,4.65,4.65,0,0,0,1.12,0,6.88,6.88,0,0,0,2.06-.7,5.2,5.2,0,0,0,1.4-1.12,3.63,3.63,0,0,0,.53-.75A1,1,0,0,0,192,93.36Z" style="fill:#af6152"></path><path d="M173.9,165.22a19.56,19.56,0,0,1,8.59-4.64c3.65-1,5.69-2.32,9.23-3.15A17.64,17.64,0,0,0,196,156.1a4.33,4.33,0,0,0,1.76-1.52,2.83,2.83,0,0,0,.29-2,4.65,4.65,0,0,0,2.26-1.13,3.16,3.16,0,0,0,.87-2.14,1.86,1.86,0,0,0-.63-1.35c.61-.61,2.42-2.33,1.45-4.21-.37-.48-1.13-.5-1.72-.62s-2-.24-2.31-.26a1.71,1.71,0,0,0-.42-.61,7.06,7.06,0,0,0-4.09-1.71,23.77,23.77,0,0,0-5,.25c-1.77.15-3.58.14-5.35.17a5.19,5.19,0,0,1-1.12-.06c-.83-.17-1.55-.74-2.39-.86a8.12,8.12,0,0,0-2.2.09,7.66,7.66,0,0,0-4.17,2.23c-3.13,3.17-5.52,6.8-9,9.66a65.47,65.47,0,0,1-9.52,6.27c-5.26,3-15.41,4.57-19.79,12-2.92,4.95-3.61,12.51-.75,16.63,1.89,2.7,11.35,3.36,17.72-.76C159.39,181.31,170.81,168.29,173.9,165.22Z" style="fill:#c8856a"></path><path d="M181.84,143.68a68.88,68.88,0,0,1,15.9-.9A33.47,33.47,0,0,0,181.84,143.68Zm.36,4.24c6-.74,12.24-1.43,18.11.08-2.8-1.28-6-1.32-9-1.33A36.15,36.15,0,0,0,182.2,147.92Zm12.62,3a37.89,37.89,0,0,0-13.89,1.36,65.07,65.07,0,0,1,13.86-1c1.37,0,3.59.23,3.23,2.13a1.65,1.65,0,0,0-.88-2A8,8,0,0,0,194.82,150.87Z" style="fill:#af6152"></path><path d="M229.46,122.17c7.39,2.13,16.06,7.65,13.93,22.39-2,13.86-9.94,44.54-12.93,52.2-3.4,8.7-7,11.79-11.58,12.86-4,.92-8.47-1.62-11.84-3.94-9.62-6.66-16-20.15-22.91-34.27A90.36,90.36,0,0,1,177,150.48a22.17,22.17,0,0,1-.28-5.08,14.43,14.43,0,0,1,1.15-4.66,3.75,3.75,0,0,0,.28-.65,4.43,4.43,0,0,0,.09-1.15,3.91,3.91,0,0,1,.91-2.64,7.17,7.17,0,0,1,1-.78,1.42,1.42,0,0,0,.3-.3c.24-.35.1-.83.14-1.25a1.92,1.92,0,0,1,2-1.58,3.42,3.42,0,0,1,2.53,1.64.48.48,0,0,0,.18.17.62.62,0,0,0,.27,0,2.93,2.93,0,0,1,1.25.08,2.47,2.47,0,0,1,1,.6,5,5,0,0,1,1.1,2.51c.34,1.5.59,3,.94,4.51.68,2.93,1,6,2.59,8.62.15.24.38.51.66.44s.34-.37.38-.63c.38-2.69-1.22-5.49.84-7.86,1.8-2.06,2.13,1.94,2.43,3,.41,1.4.81,2.8,1.22,4.19a25.64,25.64,0,0,1,1.35,7.07c0,2.27-.6,4.52-.49,6.79a8.87,8.87,0,0,0,2.54,6c6.26,6.2,9.11,8.65,9.11,8.65L215,155s.58-13.3,5.76-23.86C224.18,124.19,229.46,122.17,229.46,122.17Z" style="fill:#c8856a"></path><path d="M184.92,134.48c-.64,1.14-.38,2.56-.37,3.81a49.15,49.15,0,0,0,2.07,11.34c-.37-2.19-.84-5.36-1.2-7.58-.29-1.88-.5-3.8-.67-5.7a4.09,4.09,0,0,1,.17-1.87Z" style="fill:#af6152"></path><path d="M180.56,135.38a46.41,46.41,0,0,0,2.16,15.4c-1.14-5-1.44-10.33-2.16-15.4Z" style="fill:#af6152"></path><path d="M178.14,140.26a31.11,31.11,0,0,0,1.38,11.54c-.42-3.41-1.05-8.17-1.38-11.54Z" style="fill:#af6152"></path><path d="M207,205.68c-10.79-8.05-16.07-21.05-22-32.7a97,97,0,0,1-7-18.57,26,26,0,0,1-1.07-9.78,19.36,19.36,0,0,1,1.41-4.75c0-1.7.21-3.28,1.81-4.21a1.26,1.26,0,0,0,.54-1.23,1.75,1.75,0,0,1,2.24-1.83,3.92,3.92,0,0,1,2.08,1.64.5.5,0,0,0,.42.13,2.75,2.75,0,0,1,1.72.25c1.47.83,1.51,2.81,1.89,4.29.68,2.88,1.26,7,2.28,9.71a9.82,9.82,0,0,0,1.18,2.24c1.12.93,1.18-1,1.14-1.71-.12-2.38-1-5.19,1.1-6.93,1.46-1,1.59,2.76,2,3.58l.7,2.39c.91,3.16,2.05,6.37,1.75,9.7s-1,6.79.71,9.79a17.23,17.23,0,0,0,3.31,3.71c2.39,2.31,4.78,4.61,7.28,6.8-2.48-2.21-4.86-4.53-7.22-6.86a17.38,17.38,0,0,1-3.26-3.71,9.72,9.72,0,0,1-1.09-4.77c0-1.65.33-3.28.46-4.94.31-3.36-.83-6.61-1.73-9.78l-.69-2.39c-.38-1.18-.36-2.53-1.08-3.6-1.08-1.23-2.35,1.11-2.58,2-.42,1.69.09,3.36.12,5,.06,3.34-1.24.85-1.8-.64-1-2.69-1.58-6.85-2.24-9.68-.37-1.93-.76-4.8-3.3-4.83-.23-.05-.64.1-.8,0a4.09,4.09,0,0,0-2.24-1.73,2.09,2.09,0,0,0-2.66,2.17.89.89,0,0,1-.4.93,4,4,0,0,0-1.63,2,8.13,8.13,0,0,0-.3,2.49,18.4,18.4,0,0,0-1.4,4.76,26.31,26.31,0,0,0,1.11,9.9,97.54,97.54,0,0,0,7.09,18.6c6,11.64,11.34,24.64,22.22,32.59Z" style="fill:#af6152"></path><path d="M210.46,178.2c4.59,2.09,8.51,6.34,9.29,8.79,0,0,.32-7.39-8.7-11.49Z" style="fill:#af6152"></path><path d="M229.23,121.42c11.43,3,15,8.64,14.94,17.42,0,12.16-5.63,33.39-7.69,40.73C224.54,184,211,173.44,211,173.44L214.18,155S215.77,126.63,229.23,121.42Z" style="fill:#263238"></path></g></g></g><g id="freepik--speech-bubble-2--inject-163"><g id="freepik--speech-bubble--inject-163"><g id="freepik--speech-bubble--inject-163"><path d="M365,64.09a23.54,23.54,0,0,0-10.78,13.6l-.64,2.63A23.61,23.61,0,0,0,399,92.51l.76-2.59A23.61,23.61,0,0,0,365,64.09Z" style="fill:#fff"></path><path d="M364,62.34a25.66,25.66,0,0,0-11.26,31.11l-5,6.2a1.49,1.49,0,0,0,1.39,2.4l7.87-1.2a25.63,25.63,0,1,0,7-38.51Zm33.26,10.45A23.53,23.53,0,0,1,399.75,90L399,92.55a23.61,23.61,0,0,1-45.44-12.27l.64-2.63a23.61,23.61,0,0,1,43.07-4.86Z" style="fill:#455a64"></path></g><g id="freepik--Check--inject-163"><path d="M373.18,99.17A3.7,3.7,0,0,1,370.47,98l-8.4-9A3.7,3.7,0,1,1,367.48,84l5.46,5.82,12.9-16.35a3.71,3.71,0,1,1,5.82,4.6L376.08,97.76a3.69,3.69,0,0,1-2.75,1.41Z" style="fill:#92E3A9"></path></g></g></g><g id="freepik--speech-bubble-1--inject-163"><g id="freepik--speech-bubble--inject-163"><g id="freepik--speech-bubble--inject-163"><path d="M139.52,66.12a23.58,23.58,0,0,1,10.78,13.6l.64,2.63a23.61,23.61,0,0,1-45.46,12.19L104.71,92a23.62,23.62,0,0,1,34.81-25.83Z" style="fill:#fff"></path><path d="M105.49,73.82a25.63,25.63,0,0,0,42,29.06l7.87,1.2a1.48,1.48,0,0,0,1.38-2.4l-5-6.2a25.63,25.63,0,0,0-46.26-21.66Zm34-7.72a23.55,23.55,0,0,1,10.8,13.58l.64,2.63a23.61,23.61,0,0,1-45.44,12.27L104.73,92A23.61,23.61,0,0,1,139.49,66.1Z" style="fill:#455a64"></path></g><g id="freepik--check--inject-163"><path d="M124.12,101.2a3.69,3.69,0,0,1-2.7-1.17l-8.4-9A3.7,3.7,0,1,1,118.43,86l5.46,5.82,12.9-16.35a3.71,3.71,0,1,1,5.82,4.6L127,99.79a3.71,3.71,0,0,1-2.75,1.41Z" style="fill:#92E3A9"></path></g></g></g></svg>
